<svg width="152" height="181" viewBox="0 0 152 181" fill="none" xmlns="http://www.w3.org/2000/svg">
<g filter="url(#filter0_f_84_240)">
<path d="M32.653 108.269C29.3753 108.489 26.8449 107.385 25.718 104.161C24.5977 100.968 25.9459 98.3422 28.7322 95.8106C25.3507 94.6905 22.7011 93.0561 22.6751 89.2358C22.6536 85.9597 24.4652 83.8646 27.3414 82.5261C27.6435 82.4455 27.9393 82.3749 28.2414 82.2943C29.7954 82.1397 31.5098 82.1101 32.5765 83.1179C34.5299 84.955 34.7958 83.6166 35.9584 82.0305C37.5556 79.8332 37.9098 78.7566 35.2264 77.6432C34.2508 77.2322 33.7381 75.7827 33.0223 74.8071C32.9326 74.3778 32.8429 73.9485 32.7469 73.5293C32.877 70.4563 33.926 67.8849 36.9423 66.5342C40.2889 65.0365 42.8972 66.3127 45.406 69.0003C46.593 65.4017 48.4251 62.722 52.1871 62.4899C55.4046 62.3026 57.3761 64.0257 58.5283 66.8488C58.5914 67.1508 58.6449 67.4471 58.708 67.7492C58.4425 69.1294 58.6264 70.8933 57.8341 71.8014C55.7037 74.2586 57.242 74.511 58.9449 75.7519C60.9942 77.2444 61.5604 76.7407 62.7102 74.772C63.3572 73.6508 64.8818 73.034 66.0123 72.1783C66.3303 72.0934 66.6546 71.9984 66.9726 71.9136C70.2847 71.617 72.7962 72.7511 73.942 75.9452C75.0782 79.1335 73.8003 81.7744 71.0265 84.2857C74.2367 85.5103 77.0096 87.0112 77.036 90.8734C77.0574 94.1494 75.265 96.2562 72.4339 97.6498C72.0682 97.7474 71.7088 97.8349 71.3527 97.9384C69.9996 97.7288 68.3091 97.9535 67.3658 97.2149C65.3285 95.6184 64.8479 96.4517 63.6567 98.4232C62.5033 100.334 61.8316 101.177 64.2248 102.267C65.319 102.764 65.8712 104.362 66.6613 105.452C66.7377 105.818 66.8141 106.183 66.9001 106.555C66.9345 109.853 65.7043 112.481 62.4868 113.793C59.2916 115.091 56.7331 114.053 54.4306 111.268C53.0518 114.792 51.1571 117.615 47.238 117.737C44.2269 117.828 42.3515 116.163 41.163 113.568C41.0666 113.107 40.9799 112.651 40.8773 112.2C40.8448 109.876 41.7295 107.843 43.2412 106.08C40.4017 103.859 37.7982 102.405 35.4552 106.858C35.1729 107.395 34.2889 107.622 33.6768 107.987C33.3208 108.09 32.9869 108.18 32.653 108.269ZM53.4574 107.374C52.3967 105.189 58.282 103.912 54.3733 101.514C52.3806 100.292 51.4631 100.721 50.2686 102.677C47.7505 106.773 53.4653 104.921 53.4574 107.374ZM32.6184 94.8069C34.6666 93.9244 36.2954 99.9524 38.7448 94.5228C40.6874 90.2021 36.3129 91.8818 35.6185 90.0444C35.1287 92.0385 33.6841 93.0787 32.6184 94.8069ZM67.2134 85.6393C62.2569 83.3281 62.3597 83.4182 61.5208 84.4647C58.6227 88.1087 62.2784 88.4926 64.0861 90.4357C64.5708 88.2164 66.0109 87.0346 67.2134 85.6393ZM46.3649 72.7059C45.5176 74.6359 44.7314 76.2558 43.4028 77.8107C45.4294 77.3872 46.1466 81.9044 49.0443 78.2185C52.6229 73.6541 46.2709 75.1483 46.3649 72.7059ZM48.241 88.7146C47.6701 89.7986 45.9898 90.8347 48.2818 91.6413C49.4422 92.0534 50.2906 93.623 51.5137 91.2822C52.3479 89.6914 52.6421 89.0505 50.9102 88.1531C49.6105 87.4761 48.7984 86.8032 48.241 88.7146Z" fill="#FFE8C8"/>
<path d="M58.1554 68.3126C58.0922 68.0105 58.0387 67.7142 57.9755 67.4121C58.0976 67.1529 58.2962 66.8985 58.3418 66.6346C58.8635 63.1885 60.4348 60.5871 64.1021 60.0619C67.085 59.6353 69.3118 60.9717 70.2858 63.7837C71.4853 67.2322 69.8404 69.8029 66.9829 71.8326C66.7643 71.9916 66.6138 72.2752 66.434 72.4994C66.116 72.5843 65.7917 72.6792 65.4737 72.764C62.3749 72.315 59.9459 70.8144 58.1554 68.3126Z" fill="#FFE8C8"/>
<path d="M67.4668 107.117C67.3903 106.751 67.3139 106.385 67.2278 106.014C67.765 102.883 69.3435 100.397 71.9184 98.5015C72.2841 98.404 72.6435 98.3164 72.9995 98.213C73.9353 98.4334 74.8895 98.5816 75.7879 98.9042C78.3295 99.8207 79.9127 101.572 79.8962 104.463C79.8775 107.104 78.6137 109.128 76.2401 110.34C73.638 111.664 71.3222 111.065 69.3464 109.242C68.6463 108.623 68.0881 107.84 67.4668 107.117Z" fill="#FFE8C8"/>
<path d="M41.4336 111.649C41.53 112.11 41.6168 112.566 41.7195 113.017C41.5086 113.694 41.2914 114.381 41.0709 115.053C40.1459 117.935 38.3719 119.927 35.2953 120.186C32.4734 120.418 30.3969 119.118 29.3959 116.498C28.3132 113.648 29.3727 111.208 31.6211 109.156C32.1492 108.671 32.6965 108.198 33.2246 107.713C33.5585 107.624 33.8986 107.525 34.2325 107.435C37.2509 107.822 39.6158 109.298 41.4336 111.649Z" fill="#FFE8C8"/>
<path d="M27.6795 81.743C27.3774 81.8236 27.0816 81.8941 26.7795 81.9747C23.3274 81.2004 19.9286 80.3196 19.8165 75.809C19.7461 73.1841 20.9937 71.1224 23.3832 69.9058C27.4673 67.8426 29.8886 70.3103 32.2062 72.9651C32.296 73.3944 32.3857 73.8236 32.4818 74.2428C31.8296 77.3458 30.1712 79.811 27.6795 81.743Z" fill="#FFE8C8"/>
<path d="M68.936 123.697C67.2646 126.501 63.3216 127.553 60.7099 125.9C58.2327 124.328 57.452 120.634 59.0512 117.967C60.7289 115.152 64.656 114.105 67.2773 115.764C69.7386 117.339 70.5193 121.033 68.936 123.697Z" fill="#FFE8C8"/>
<path d="M12.8843 96.4302C10.251 94.8751 9.46178 90.9397 11.2522 88.2632C12.9576 85.7016 16.6211 84.7578 19.1294 86.2371C21.7627 87.7922 22.5519 91.7275 20.7615 94.4041C19.0657 96.9714 15.3926 97.9095 12.8843 96.4302Z" fill="#FFE8C8"/>
<path d="M24.0603 107.005C22.4558 109.808 18.5419 110.919 15.9082 109.322C13.4187 107.813 12.5935 104.147 14.1163 101.475C15.7208 98.6717 19.6348 97.5603 22.2685 99.1573C24.7676 100.673 25.5991 104.328 24.0603 107.005Z" fill="#FFE8C8"/>
<path d="M80.1956 93.7859C77.6498 92.0062 77.1246 88.0089 79.0976 85.4432C81.0044 82.9623 84.7335 82.2527 87.103 83.9116C89.6488 85.6914 90.1678 89.6987 88.2011 92.2544C86.3039 94.7411 82.5747 95.4507 80.1956 93.7859Z" fill="#FFE8C8"/>
<path d="M38.6769 54.1756C41.2004 55.5669 42.1653 59.1784 40.7324 61.9189C39.2525 64.756 35.3782 66.0162 32.6755 64.5301C30.0016 63.0614 29.1108 59.1617 30.8369 56.4184C32.4749 53.8161 36.1247 52.7669 38.6769 54.1756Z" fill="#FFE8C8"/>
<path d="M85.4295 78.9183C83.6908 81.6817 79.7375 82.6441 77.1953 80.9221C74.7622 79.2802 74.0738 75.5865 75.7245 72.9641C77.4631 70.2007 81.4164 69.2383 83.9586 70.9603C86.3918 72.6022 87.0738 76.306 85.4295 78.9183Z" fill="#FFE8C8"/>
<path d="M51.7796 51.2135C54.3974 52.8147 55.1294 56.757 53.3004 59.4103C51.5503 61.9586 47.8671 62.849 45.3998 61.3251C42.782 59.7239 42.0501 55.7816 43.8694 53.1224C45.6229 50.59 49.3123 49.6896 51.7796 51.2135Z" fill="#FFE8C8"/>
<path d="M55.9817 126.802C54.291 129.595 50.3573 130.611 47.7677 128.944C45.3031 127.352 44.5574 123.665 46.1696 121.019C47.8603 118.227 51.7844 117.205 54.3773 118.888C56.842 120.48 57.5843 124.151 55.9817 126.802Z" fill="#FFE8C8"/>
<path d="M17.8459 114.128C20.0385 111.486 22.5579 110.89 25.3075 112.599C27.9321 114.232 28.3927 117.76 26.3207 120.336C24.1477 123.031 21.5057 123.442 18.8918 121.579C16.2266 119.671 16.1495 117.015 17.8459 114.128Z" fill="#FFE8C8"/>
<path d="M73.9243 122.504C71.3329 120.585 70.6647 118.112 72.3533 115.11C73.9636 112.256 77.4994 111.346 80.0262 113.156C82.662 115.045 83.1756 117.703 81.3073 120.568C79.4361 123.458 76.8142 123.923 73.9243 122.504Z" fill="#FFE8C8"/>
<path d="M17.4493 81.0882C15.4394 83.8403 12.9388 84.7677 10.1001 83.0741C7.29026 81.3981 6.68734 78.7555 8.48507 75.7914C10.2861 72.8433 12.9349 72.103 15.7637 73.7488C18.615 75.4222 18.9849 78.0346 17.4493 81.0882Z" fill="#FFE8C8"/>
<path d="M42.7385 129.694C40.757 132.422 38.2376 133.379 35.3933 131.779C32.5842 130.187 31.9369 127.573 33.5139 124.517C35.0187 121.597 38.5418 120.582 41.132 122.291C43.8505 124.093 44.2645 126.634 42.7385 129.694Z" fill="#FFE8C8"/>
<path d="M83.6903 106.476C81.1207 104.501 80.5064 102.005 82.2431 99.0323C83.9014 96.2066 87.4569 95.3504 89.9459 97.2206C92.544 99.1707 93.0003 101.835 91.0999 104.667C89.1647 107.532 86.5358 107.923 83.6903 106.476Z" fill="#FFE8C8"/>
<path d="M25.8816 57.8531C28.4102 59.8723 29.0026 62.4247 27.0674 65.2907C25.1259 68.1667 22.4252 68.7362 19.7106 66.9514C16.9671 65.149 16.5614 62.4461 18.4711 59.5785C20.406 56.6706 23.029 56.3317 25.8816 57.8531Z" fill="#FFE8C8"/>
<path d="M66.0897 55.8297C63.8738 58.7207 61.3311 59.567 58.546 57.8088C55.7705 56.0564 55.2501 53.3666 57.1247 50.4492C58.9994 47.5317 61.6903 46.8725 64.475 48.5889C67.3078 50.3343 67.5091 52.9833 66.0897 55.8297Z" fill="#FFE8C8"/>
<path d="M81.977 65.8218C79.9253 68.5347 77.4458 69.3221 74.5952 67.7325C71.8696 66.2186 71.2148 62.7254 73.1777 60.0697C75.2099 57.3033 77.8439 56.6929 80.5524 58.4463C83.2898 60.2173 83.561 62.8392 81.977 65.8218Z" fill="#FFE8C8"/>
<path d="M3.60774 111.699C1.3395 109.921 0.5482 107.581 2.09989 104.969C3.65491 102.372 6.23611 101.633 8.71477 103.053C11.203 104.478 11.7862 107.066 10.247 109.659C8.71458 112.283 6.23584 112.709 3.60774 111.699Z" fill="#FFE8C8"/>
<path d="M22.6139 134.433C20.3904 132.668 19.5895 130.322 21.1474 127.7C22.7087 125.093 25.3154 124.356 27.8004 125.765C30.2982 127.197 30.8847 129.801 29.3489 132.409C27.7975 135.064 25.3126 135.5 22.6139 134.433Z" fill="#FFE8C8"/>
<path d="M92.7916 110.546C94.7406 112.241 95.3753 114.514 93.9066 117.163C92.5696 119.559 88.858 120.432 86.8809 118.803C84.7015 117.009 84.2728 114.598 85.8472 112.013C87.1793 109.794 90.5515 109.104 92.7916 110.546Z" fill="#FFE8C8"/>
<path d="M13.9813 67.9556C11.9332 70.3655 9.55598 71.2012 7.14862 69.6442C4.76048 68.0989 4.25999 65.5044 5.91499 62.9812C7.5637 60.468 10.1594 59.8342 12.5697 61.3652C14.9993 62.9078 15.1356 65.4065 13.9813 67.9556Z" fill="#FFE8C8"/>
<path d="M77.0439 45.7787C79.2641 47.5275 80.0554 49.8674 78.4845 52.4682C76.9295 55.0648 74.3386 55.798 71.8662 54.3682C69.3842 52.9326 68.8107 50.3501 70.3498 47.7577C71.9015 45.1452 74.3707 44.713 77.0439 45.7787Z" fill="#FFE8C8"/>
<path d="M49.6437 45.7746C47.8087 48.1192 45.4736 49.036 42.9846 47.61C40.5114 46.1798 39.9251 43.6166 41.4584 41.0335C42.998 38.4404 45.5738 37.7112 48.0436 39.1256C50.539 40.5415 50.8439 43.0034 49.6437 45.7746Z" fill="#FFE8C8"/>
<path d="M58.2331 139.408C56.2384 141.711 53.8423 142.577 51.4158 141.008C49.0084 139.451 48.5013 136.825 50.1689 134.282C51.8398 131.754 54.4639 131.096 56.8871 132.649C59.3262 134.197 59.5328 136.711 58.2331 139.408Z" fill="#FFE8C8"/>
<path d="M96.124 68.502C98.3476 70.2668 99.1485 72.6124 97.5905 75.235C96.0292 77.8417 93.4224 78.5791 90.9341 77.1536C88.4362 75.7222 87.856 73.1078 89.4014 70.5054C90.9402 67.8712 93.4253 67.4347 96.124 68.502Z" fill="#FFE8C8"/>
<path d="M5.74303 90.0994C8.01899 92.0347 8.71492 94.4 7.0446 96.9266C5.39645 99.439 2.80498 100.088 0.39548 98.5579C-1.99812 97.0232 -2.48882 94.4354 -0.853607 91.9014C0.810074 89.3429 3.27724 89.0623 5.74303 90.0994Z" fill="#FFE8C8"/>
<path d="M93.9275 90.135C91.704 88.3703 90.9093 86.0146 92.4769 83.3978C94.0383 80.7912 96.645 80.0537 99.1429 81.4851C101.641 82.9165 102.211 85.525 100.676 88.1332C99.105 90.7759 96.6103 91.2066 93.9275 90.135Z" fill="#FFE8C8"/>
<path d="M36.7707 48.7925C34.8883 51.1917 32.547 52.1186 30.0642 50.6825C27.5911 49.2523 27.0111 46.6791 28.5444 44.096C30.084 41.5028 32.6534 40.7837 35.1296 42.188C37.6441 43.6156 37.911 46.0961 36.7707 48.7925Z" fill="#FFE8C8"/>
<path d="M71.1548 136.35C69.1948 138.619 66.9031 139.381 64.3762 138.015C62.0801 136.79 61.436 133.067 63.1615 130.961C65.0639 128.657 67.5572 127.976 69.9172 129.587C72.2613 131.203 72.4611 133.684 71.1548 136.35Z" fill="#FFE8C8"/>
<path d="M102.217 94.8256C104.447 96.5385 104.893 98.7105 103.212 101.148C101.502 103.61 99.2014 103.963 96.9315 102.379C94.7994 100.891 94.4779 98.7114 95.9653 96.3929C97.5722 93.883 99.7712 93.5229 102.217 94.8256Z" fill="#FFE8C8"/>
<path d="M77.5986 134.693C75.2507 132.936 74.697 130.81 76.2883 128.346C77.8796 125.883 80.1216 125.326 82.4669 126.79C84.8219 128.26 85.2236 130.502 83.677 132.979C82.0831 135.511 79.8834 135.787 77.5986 134.693Z" fill="#FFE8C8"/>
<path d="M-2.55982 85.3026C-4.73835 83.5929 -5.17115 81.4426 -3.48375 79.0372C-1.7775 76.6016 0.495005 76.2722 2.73937 77.8552C4.85548 79.3465 5.13856 81.5032 3.65082 83.7798C2.03439 86.2838 -0.139421 86.6036 -2.55982 85.3026Z" fill="#FFE8C8"/>
<path d="M92.8457 56.0381C95.0905 57.663 95.6601 59.7852 94.0403 62.2734C92.4046 64.7657 90.1587 65.2223 87.8288 63.7124C85.6528 62.2957 85.2488 60.1629 86.6626 57.8137C88.2022 55.263 90.3621 54.7958 92.8457 56.0381Z" fill="#FFE8C8"/>
<path d="M17.5004 53.5646C15.0959 51.8984 14.4502 49.8133 16.0219 47.2961C17.597 44.7947 19.8071 44.247 22.1717 45.7225C24.3695 47.0829 24.8242 49.177 23.4743 51.5512C22.002 54.1426 19.8547 54.5896 17.5004 53.5646Z" fill="#FFE8C8"/>
<path d="M45.017 142.189C43.0781 144.679 40.893 145.228 38.5972 143.641C36.2628 142.032 36.0611 139.702 37.7618 137.317C39.3648 135.068 41.5384 134.665 43.7401 136.041C46.1598 137.578 46.2714 139.798 45.017 142.189Z" fill="#FFE8C8"/>
<path d="M6.93422 124.233C4.545 122.479 4.01352 120.338 5.66209 117.868C7.31695 115.387 9.56948 114.962 11.8867 116.492C14.0501 117.929 14.4126 120.065 12.9892 122.408C11.4245 124.999 9.24114 125.313 6.93422 124.233Z" fill="#FFE8C8"/>
<path d="M62.0509 42.6973C60.2411 45.0015 58.0911 45.5583 55.8048 43.9776C53.4896 42.3794 53.2882 40.0913 54.9764 37.7272C56.5669 35.4983 58.715 35.0931 60.8849 36.4782C63.2725 37.9815 63.4699 40.17 62.0509 42.6973Z" fill="#FFE8C8"/>
<path d="M90.6431 131.127C88.78 129.4 88.2304 127.373 89.7583 125.329C91.2389 123.34 93.4399 122.87 95.3774 124.35C97.1127 125.666 97.4523 127.732 96.1466 129.675C94.7181 131.793 92.6612 131.989 90.6431 131.127Z" fill="#FFE8C8"/>
<path d="M-5.17769 72.0189C-7.03507 70.6012 -7.59031 68.6682 -6.19056 66.5325C-4.91987 64.5822 -2.90715 64.0536 -1.00756 65.1916C1.05542 66.4286 1.48455 68.5212 0.0944032 70.6627C-1.17961 72.597 -3.09505 72.9486 -5.17769 72.0189Z" fill="#FFE8C8"/>
<path d="M89.3882 43.5231C91.1229 44.7554 91.8393 46.5362 90.7771 48.6406C89.6051 50.9421 87.5047 51.6535 85.3823 50.5331C83.2406 49.401 82.7664 47.2534 84.0892 45.0711C85.3052 43.06 87.2361 42.6623 89.3882 43.5231Z" fill="#FFE8C8"/>
<path d="M106.172 113.529C104.678 115.497 102.715 116.306 100.633 115.099C98.5601 113.898 98.1239 111.731 99.4345 109.569C100.648 107.583 102.708 107 104.645 107.994C106.791 109.1 107.111 111.155 106.172 113.529Z" fill="#FFE8C8"/>
<path d="M8.82196 49.1197C10.5437 50.3303 11.2535 52.0794 10.1976 54.1737C9.03811 56.4551 6.96321 57.1681 4.85029 56.0535C2.73404 54.923 2.2443 52.8215 3.56717 50.6391C4.78649 48.6439 6.68237 48.2388 8.82196 49.1197Z" fill="#FFE8C8"/>
<path d="M15.7288 135.101C14.2378 137.043 12.2778 137.827 10.2335 136.601C8.19891 135.381 7.76932 133.246 9.10248 131.111C10.3287 129.147 12.3704 128.594 14.2853 129.602C16.3987 130.717 16.7222 132.746 15.7288 135.101Z" fill="#FFE8C8"/>
<path d="M74.6758 39.1412C73.3242 40.9875 71.4948 41.7525 69.5068 40.7553C67.3298 39.6574 66.7538 37.5449 68.0322 35.3489C69.3073 33.1369 71.4635 32.5701 73.5336 33.8391C75.4147 35.0076 75.6705 36.9537 74.6758 39.1412Z" fill="#FFE8C8"/>
<path d="M26.1491 146.484C24.3199 145 23.707 143.032 25.0941 140.916C26.4687 138.821 28.6314 138.328 30.6248 139.634C32.4356 140.829 32.8547 142.874 31.6735 144.85C30.3762 147.034 28.3558 147.405 26.1491 146.484Z" fill="#FFE8C8"/>
<path d="M68.1528 149.765C66.3217 148.433 65.9243 146.693 67.3059 144.671C68.5584 142.835 70.2983 142.446 72.0733 143.55C74.0501 144.777 74.3336 146.614 72.9742 148.622C71.7283 150.49 70.0351 150.74 68.1528 149.765Z" fill="#FFE8C8"/>
<path d="M108.065 66.4873C110.09 67.8685 110.608 69.5429 109.288 71.6156C108.099 73.4768 106.405 73.9624 104.592 72.9187C102.6 71.7803 102.212 70.004 103.485 67.9441C104.683 66.0469 106.35 65.795 108.065 66.4873Z" fill="#FFE8C8"/>
<path d="M59.229 146.627C60.9352 147.884 61.4081 149.503 60.2487 151.424C58.9887 153.506 57.1893 154.011 55.222 152.79C53.4374 151.68 53.0721 149.974 54.206 148.051C55.469 145.944 57.2314 145.583 59.229 146.627Z" fill="#FFE8C8"/>
<path d="M111.175 79.3895C113.201 80.7707 113.723 82.4611 112.396 84.5438C111.201 86.415 109.5 86.9107 107.668 85.8554C105.667 84.7111 105.265 82.9132 106.561 80.839C107.749 78.9359 109.429 78.6638 111.175 79.3895Z" fill="#FFE8C8"/>
<path d="M45.33 32.295C43.9999 34.0432 42.3694 34.5957 40.5685 33.4898C38.585 32.2731 38.314 30.4149 39.7092 28.4563C40.9845 26.6472 42.7447 26.3539 44.4824 27.5186C46.2392 28.695 46.3813 30.3778 45.33 32.295Z" fill="#FFE8C8"/>
<path d="M106.169 58.4572C104.968 60.0618 103.393 60.7171 101.722 59.8285C99.861 58.8392 99.4532 57.0091 100.648 55.1374C101.724 53.457 103.458 53.0365 105.095 54.0014C106.745 54.9881 106.922 56.6364 106.169 58.4572Z" fill="#FFE8C8"/>
<path d="M58.1049 29.0532C56.8428 30.5651 55.2641 31.2045 53.6524 30.2411C51.8773 29.1786 51.5075 27.3299 52.7704 25.5408C53.8916 23.9574 55.6348 23.5427 57.2154 24.5983C58.7864 25.6481 58.9184 27.2833 58.1049 29.0532Z" fill="#FFE8C8"/>
<path d="M81.1902 146.527C79.6271 145.233 79.1284 143.57 80.4064 141.735C81.5428 140.106 83.2567 139.674 84.8586 140.673C86.6272 141.787 86.971 143.592 85.7185 145.428C84.5792 147.083 82.94 147.311 81.1902 146.527Z" fill="#FFE8C8"/>
<path d="M27.7014 36.6888C25.8888 35.2843 25.4256 33.6708 26.6267 31.7896C27.9473 29.717 29.7924 29.3506 31.6616 30.6645C33.3737 31.8692 33.5577 33.6326 32.3115 35.4588C31.0402 37.3252 29.3522 37.4399 27.7014 36.6888Z" fill="#FFE8C8"/>
<path d="M110.553 98.4395C109.123 97.0588 108.662 95.3776 110.034 93.6272C111.225 92.101 112.965 91.7124 114.494 92.8064C116.155 94.0079 116.435 95.8296 115.096 97.5715C113.895 99.1337 112.25 99.3294 110.553 98.4395Z" fill="#FFE8C8"/>
<path d="M-0.935841 125.122C-2.25553 126.599 -3.83166 127.17 -5.45328 126.159C-7.06529 125.154 -7.44984 123.435 -6.40299 121.737C-5.23667 119.848 -3.39174 119.398 -1.67291 120.593C-0.133765 121.651 -0.0235761 123.343 -0.935841 125.122Z" fill="#FFE8C8"/>
<path d="M45.9857 149.727C47.6836 151.146 48.2108 152.784 46.9743 154.616C45.8697 156.236 44.1592 156.684 42.5607 155.701C40.7988 154.619 40.4584 152.83 41.6598 150.991C42.7576 149.338 44.4137 149.232 45.9857 149.727Z" fill="#FFE8C8"/>
<path d="M19.3102 38.3451C17.9683 39.8363 16.3699 40.4222 14.7764 39.3449C13.2054 38.2951 12.8811 36.5433 14.0015 34.8762C15.1253 33.2249 16.8653 32.7943 18.4618 33.8457C20.0424 34.9013 20.1652 36.5725 19.3102 38.3451Z" fill="#FFE8C8"/>
<path d="M108.305 125.936C107.104 127.498 105.689 127.96 104.202 127.03C102.715 126.101 102.406 124.58 103.406 123.021C104.406 121.461 105.92 121.074 107.414 121.993C108.917 122.919 109.057 124.392 108.305 125.936Z" fill="#FFE8C8"/>
<path d="M33.7258 156.904C32.7313 158.37 31.5753 158.863 30.2887 158.249C28.8165 157.551 28.3813 156.232 29.2638 154.712C30.1401 153.203 31.492 152.884 32.8828 153.755C34.1294 154.539 34.1432 155.769 33.7258 156.904Z" fill="#FFE8C8"/>
<path d="M12.992 144.651C14.3136 143.023 15.7388 142.693 17.1566 143.733C18.6033 144.791 18.674 146.333 17.5517 147.791C16.5556 149.089 15.1682 149.359 13.8283 148.491C12.3154 147.518 12.268 146.087 12.992 144.651Z" fill="#FFE8C8"/>
<path d="M1.55991 137.499C0.538272 138.795 -0.704321 139.236 -2.0605 138.33C-3.22441 137.541 -3.47114 136.281 -2.68507 135.022C-1.7858 133.582 -0.437135 133.247 0.906106 134.131C2.09221 134.906 2.18885 136.131 1.55991 137.499Z" fill="#FFE8C8"/>
<path d="M70.3454 25.5825C69.3959 26.7423 68.2173 27.2079 66.9901 26.4776C65.5899 25.6425 65.3292 24.2347 66.3501 22.8544C67.2197 21.6739 68.5274 21.3838 69.7172 22.2163C70.8844 23.0213 70.9873 24.2361 70.3454 25.5825Z" fill="#FFE8C8"/>
<path d="M86.5901 35.5556C85.2912 37.2115 83.8586 37.4258 82.4438 36.3597C81.1668 35.391 81.04 33.9812 82.0194 32.6036C83.1531 31.0002 84.6403 30.8468 86.0552 31.913C87.3543 32.8673 87.347 34.2374 86.5901 35.5556Z" fill="#FFE8C8"/>
<path d="M102.444 45.1826C101.213 46.6023 99.9122 46.9661 98.6414 45.9872C97.5599 45.151 97.3383 43.8503 98.2172 42.6337C99.203 41.2459 100.568 40.9907 101.852 41.9494C102.975 42.783 102.944 44.0419 102.444 45.1826Z" fill="#FFE8C8"/>
<path d="M5.79643 40.946C4.86619 42.1175 3.68135 42.5931 2.45757 41.8788C1.04485 41.0638 0.777819 39.6662 1.77614 38.2583C2.63279 37.0561 3.93407 36.7761 5.13306 37.5726C6.31948 38.3892 6.42237 39.6039 5.79643 40.946Z" fill="#FFE8C8"/>
<path d="M117.947 109.596C116.845 111.149 115.625 111.575 114.221 110.724C113.001 109.984 112.684 108.792 113.374 107.475C114.146 105.985 115.413 105.462 116.885 106.202C118.361 106.959 118.481 108.253 117.947 109.596Z" fill="#FFE8C8"/>
<path d="M98.1533 141.758C97.1802 143.126 95.9536 143.562 94.5502 142.711C93.3294 141.971 93.0131 140.779 93.703 139.462C94.4743 137.972 95.7479 137.439 97.2142 138.19C98.6549 138.938 98.8954 140.209 98.1533 141.758Z" fill="#FFE8C8"/>
</g>
<defs>
<filter id="filter0_f_84_240" x="-22.5" y="17.7402" width="144.737" height="144.768" filterUnits="userSpaceOnUse" color-interpolation-filters="sRGB">
<feFlood flood-opacity="0" result="BackgroundImageFix"/>
<feBlend mode="normal" in="SourceGraphic" in2="BackgroundImageFix" result="shape"/>
<feGaussianBlur stdDeviation="2" result="effect1_foregroundBlur_84_240"/>
</filter>
</defs>
</svg>
