<svg width="25" height="20" viewBox="0 0 25 20" fill="none" xmlns="http://www.w3.org/2000/svg">
<path fill-rule="evenodd" clip-rule="evenodd" d="M14.7385 8.58308C15.6202 5.86927 18.535 4.38411 21.2488 5.26588C23.9627 6.14765 25.4478 9.06245 24.566 11.7763C24.4191 12.2286 23.9333 12.4761 23.481 12.3291C23.0287 12.1822 22.7812 11.6964 22.9281 11.2441C23.516 9.43485 22.5259 7.49166 20.7166 6.90381C18.9074 6.31596 16.9642 7.30607 16.3764 9.11528C16.2294 9.56758 15.7436 9.81511 15.2913 9.66815C14.839 9.52118 14.5915 9.03539 14.7385 8.58308ZM0.96068 4.27753C1.84245 1.56372 4.75725 0.0785533 7.47106 0.960324C10.1849 1.8421 11.67 4.75689 10.7883 7.4707C10.6413 7.92301 10.1555 8.17053 9.7032 8.02357C9.2509 7.87661 9.00337 7.39081 9.15034 6.93851C9.73818 5.1293 8.74807 3.1861 6.93887 2.59826C5.12966 2.01041 3.18646 3.00052 2.59861 4.80972C2.45165 5.26203 1.96585 5.50955 1.51355 5.36259C1.06125 5.21563 0.813719 4.72983 0.96068 4.27753ZM18.847 16.8507C18.346 17.8528 15.4424 19.0557 12.8356 19.1559C9.09797 19.2997 5.7951 17.5281 3.54449 13.4361C3.3153 13.0194 3.46732 12.4958 3.88403 12.2666C4.30074 12.0374 4.82434 12.1895 5.05353 12.6062C6.98252 16.1134 9.66879 17.5542 12.7694 17.435C13.9275 17.3904 15.0803 17.1198 16.0788 16.7061C16.4793 16.5402 16.8301 16.3601 17.0906 16.1931C17.1976 16.1245 17.2819 16.0627 17.3368 16.0148C17.3473 16.0056 17.3397 16.0142 17.3066 16.0805C17.5193 15.6551 18.0365 15.4827 18.4619 15.6954C18.8873 15.9081 19.0597 16.4253 18.847 16.8507Z" fill="black"/>
</svg>
